<svg xmlns="http://www.w3.org/2000/svg" id="图层_1" viewBox="0 0 186.7 158.2">
    <style>
        .st0{fill:#fff}.st1{fill:#1d84ff}
    </style>
    <path d="M156.9 141.8c-.6-1.7-1.1-3.2-1.1-6.1 0-2.2.6-2.6 2.3-3.8 1-.7 2.4-1.8 4.4-3.8 5.6-5.8 9-9.7 11-14.2s2.6-9.6 2.6-17.8c0-9.3-5.8-18.6-14.6-25.5-8.8-6.9-20.7-11.5-32.8-11.5-12.8 0-23.1 3.9-30.8 10-6.6 5.1-11.2 11.9-13.7 19.1-2.5 7.3-2.9 15-1.1 22.2 1.9 7.6 6.2 14.5 13.2 19.7 6.2 4.6 13.5 8 21.3 9.7 7.3 1.6 15 1.8 22.6.2 9.5-2.1 10.4-1.2 12.2.5.9.9 2.1 2 5.2 3-.3-.6-.5-1.2-.7-1.7zM32.5 108.1c-.5 1.4-1 2.8-1.3 4.8 2.2-.7 4.1-1.8 6-2.9 3.8-2.2 7.5-4.4 13-3.3 4.4.9 7.7 1.5 11.2 1.9 3.2.4 6.6.5 11.4.6-1.2-3.1-1.6-6.8-1.6-10.5.1-5 1.2-10.2 2.5-14.2 3.6-10.7 8.1-14.8 14.9-21.1l.4-.4c.8-.8 1.3-1.2 1.8-1.6.5-.4 1-.8 2-1.5 4.7-3.3 9.6-5.8 15.1-7.6 5.2-1.7 10.8-2.6 17-2.6-.9-3.6-2.2-7-3.8-10.2-6-11.6-16.6-20.1-29-24.9-12.4-4.8-26.5-6-39.5-3-4.8 1.1-9.5 2.7-13.8 5-9.4 4.8-16.5 11-21.3 18-4.6 6.7-7.1 14.1-7.6 21.6-.4 7.5 1.2 15.2 4.9 22.3 4 7.7 10.3 14.9 18.9 20.9l.3.2v.4c0 4-.8 6-1.5 8.1zm-25.1-23C2.9 76.8 0 67.3 0 58.3 0 51 2.3 43.1 5.9 35.9c3.9-7.6 9.2-14.6 15.1-19.2C34.3 6 49.6.5 65.1 0c15.7-.5 31.6 4.2 45.7 13.9 6.1 4.2 10.7 8.7 14.4 13.9 3.7 5.2 6.4 10.9 8.5 17.6 1.3 4.1 1.7 4.2 4.2 4.4.9.1 2 .2 3.5.5 5.1 1 10.1 2.7 14.9 5 4.5 2.2 8.7 5 12.3 8.2 2.5 2.3 4.8 4.5 6.9 7 2.1 2.5 4 5.2 5.5 8.3 4 7.9 5.9 15.2 5.6 22.5-.3 7.2-2.7 14.4-7.3 22.1-1.5 2.5-4 5.6-6.8 8.6-2.6 2.8-5.4 5.4-7.7 7 .9 3.7 1.8 6.3 2.6 8.4 1.5 4.2 2.3 6.3.1 10.5l-.2.4h-.4c-3.6-.3-5.8-1.8-8.3-3.3l-.8-.5c-1.2-.8-2.4-1.5-3.7-2.2-1.2-.6-2.4-1.3-3.8-2-3.3-1.7-3.4-1.7-6.2-.9-.6.2-1.3.4-2.4.6-6.2 1.6-8.6 1.5-13.7 1.5h-3.4c-10.1 0-21.6-4.4-31-10.9-9.2-6.3-16.4-14.6-18.5-22.7-4.1.9-8.2 1.1-12.3.9-4.3-.2-8.6-.9-12.6-1.8-6.4-1.4-11.5 2-16.4 5.2-3.2 2.1-6.3 4.1-9.6 4.8-2.9.6-4.3-.4-4.7-2.3-.6-2.9 1.3-8.2 3.1-13.2.9-2.5 1.8-4.9 2.3-6.9-6.7-4.1-12.9-11.2-17.5-19.5zm72.9-37.5c-1.5-1.7-2.5-4.1-2.5-7 0-1.7 1.2-3.5 2.9-4.9 1.7-1.4 3.9-2.3 5.9-2.3 4.6 0 7.4 2.2 8.7 4.9.5 1.1.7 2.3.7 3.5 0 1.2-.3 2.4-.8 3.5-1.3 2.9-4.2 5.2-8.6 5.2-2.2.2-4.6-.9-6.3-2.9zm-41.9 0c-1.5-1.7-2.5-4.1-2.5-7 0-1.7 1.2-3.5 2.9-4.9 1.7-1.4 3.9-2.3 5.9-2.3 4.5 0 7.3 2.1 8.6 4.9.5 1.1.7 2.3.7 3.5 0 1.2-.3 2.4-.8 3.5-1.3 2.9-4.2 5.3-8.5 5.3-2.2.1-4.6-1-6.3-3zm79.3 48.9c-1 2.2-3.3 3.9-6.9 3.9-3.7 0-5.9-1.7-6.8-3.9l.6-.3-.6.3c-.4-.9-.6-1.9-.5-2.9 0-1 .2-2 .6-2.9 1.1-2.4 3.4-4.3 6.6-4.2 3.6.1 6 1.9 7 4.3.4.9.6 1.9.6 2.9 0 .9-.2 1.9-.6 2.8zm22.9 3.3c-2.3-.9-4-3.1-4-6.7 0-3.2 1.7-5.1 4-5.9.9-.3 1.9-.5 3-.4 1 0 2 .2 3 .5 2.7.9 4.9 3 4.9 5.8 0 3.3-2.2 5.6-4.8 6.6-1 .4-2 .6-3 .6-1.1.1-2.2-.1-3.1-.5z" class="st0"/>
    <path d="M117.7 96.5c-1 2.2-3.3 3.9-6.9 3.9-3.7 0-5.9-1.7-6.8-3.9l.6-.3-.6.3c-.4-.9-.6-1.9-.5-2.9 0-1 .2-2 .6-2.9 1.1-2.4 3.4-4.3 6.6-4.2 3.6.1 6 1.9 7 4.3.4.9.6 1.9.6 2.9 0 .9-.2 1.9-.6 2.8zM140.6 99.8c-2.3-.9-4-3.1-4-6.7 0-3.2 1.7-5.1 4-5.9.9-.3 1.9-.5 3-.4 1 0 2 .2 3 .5 2.7.9 4.9 3 4.9 5.8 0 3.3-2.2 5.6-4.8 6.6-1 .4-2 .6-3 .6-1.1.1-2.2-.1-3.1-.5z" class="st1"/>
</svg>
