<svg xmlns="http://www.w3.org/2000/svg" id="图层_1" viewBox="0 0 200 200">
    <style>
        .st0{fill:#fff}.st1{fill:#1d84ff}
    </style>
    <path d="M104.6.4C70.4-.4 40.2 29.1 41 62.8c0 12.5 8.8 33 21.8 53.9 13.3 20.9 23 34.7 33.9 49.4 2 2.5 4.5 3.9 7.8 3.9 3.1 0 6.1-1.6 7.8-3.9 10.9-14.6 20.9-28.5 33.9-49.4C159.3 95.8 168 75.3 168 62.8c.9-33.7-28.9-63.2-63.4-62.4zm39.2 97.4c-8.4 15.8-20.1 33.5-34.7 53.7-1 1.4-2.7 2.1-4.5 2.1-1.6 0-3.5-.6-4.3-2.1C71 111.6 52.7 77.7 52.7 62.9c0-14.1 5.1-26.1 15.2-36.1s22.4-15 36.7-15 26.5 5.1 36.7 15c10.3 9.9 15.4 22 15.4 36.1 0 7.6-4.3 19.1-12.9 34.9z" class="st0"/>
    <path d="M182.4 163.9c-2.9-2.9-6.8-5.3-11.7-7-4.9-1.8-10.5-2.5-16.6-2.5v.2h-.2c-2.3-.2-4.1 1.6-4.3 3.9 0 2.3 1.8 4.3 4.1 4.3l5.2.2c10.7.9 15.9 5.1 17.6 6.9 1.8 1.8 2.5 3.3 2.5 4.9 0 3.7-6.2 8.2-19.7 11.5-13.9 3.5-33.7 5.7-55.2 5.7-22.4 0-40.8-2-55.4-5.7-13.9-3.7-20.1-8.2-20.1-11.5 0-2.9 1.2-5.3 3.5-6.8 3.1-1.9 8.1-3.4 14.8-4 .3.1.7.1 1 .1l6.2-.4c2.3-.2 4.1-2.1 3.9-4.5 0-2.1-2.1-3.9-4.3-3.9-12.1.2-20.9 2.1-26.3 5.7-4.9 3.3-7.3 7.8-7.3 13.9 0 4.7 2.9 9 8.2 12.3 4.3 2.9 10.3 5.3 18.1 7.2C61.3 198 82 200 104.2 200c22.4 0 42.7-2 57.1-5.8 7.8-2 13.9-4.3 18.1-7.2 5.3-3.3 8-7.6 8-12.3.1-4-1.7-7.5-5-10.8zM87.5 65.3c0-9.1 7.3-16.4 16.4-16.4s16.4 7.3 16.4 16.4-7.3 16.4-16.4 16.4c-9.1 0-16.4-7.3-16.4-16.4" class="st1"/>
</svg>
