<svg xmlns="http://www.w3.org/2000/svg" id="图层_1" viewBox="0 0 167.8 122.2">
    <style>
        .st0{fill:#fff}.st1{fill:#1d84ff}
    </style>
    <path d="M148.2 57.7c-1 0-2.1-.2-2.9-.4-3.1-.8-5.2-3.3-6.9-5l-1.3-1.2c-1.9-1.9-4.2-3.8-6.5-5.6-7.3-5.6-14.8-10.2-22.3-13.3-18.8-7.9-56.9-1-69 12.3C30.6 54.1 23.7 58 17 57.6c-5-.6-9.8-3.7-14-9.7-7.7-11 1-24.6 7.3-31C26.6 1.2 84.3-3.6 121.1 2.7c15.6 2.9 35.4 8.7 42.1 21.7 2.3 4.6 4.8 10.4 4.6 16.9-.2 6.2-4 11.5-9.6 14.2-2.1 1-4.2 1.5-6 1.9l-.4.2c-1.5.1-2.5.1-3.6.1zM87.8 19.1c9 0 17.7 1.2 24.6 4.2 8.3 3.5 16.7 8.5 24.6 14.8 2.5 1.9 4.8 4 7.1 6.2.6.4 1 1 1.7 1.7.6.8 1.9 2.1 2.3 2.1 0 0 .4 0 1.5-.2l.4-.2c1.7-.4 3.1-.6 4.2-1.2 1.7-.8 3.8-2.5 4-5.6.2-4.2-1.9-8.5-3.5-12.1-3.8-7.3-16-13.1-34.8-16.3C82.4 6 29.7 12 17.2 24.1c-.4.4-11 11.7-6.2 18.3 3.7 5.2 6 5.4 6.9 5.4 2.3.2 6.7-1.5 14.6-10C43 26.4 66.8 19.1 87.8 19.1z" class="st0"/>
    <path d="M113.4 122.2h-55c-15.2 0-28.5-7.1-34-17.9-4-7.9-2.7-16.7 2.9-24l27.5-34.8c6.5-8.3 18.1-13.3 30.8-13.3s24.4 5 30.8 13.3l27.5 34.8c5.8 7.3 6.9 16 2.9 24-4.8 10.9-17.9 17.9-33.4 17.9zM85.9 41.8c-9.8 0-18.5 3.5-23.3 9.6L35.1 86.2c-3.5 4.4-4.2 9.2-1.9 13.8 2.9 6.2 11.9 12.5 25.2 12.5h55.2c13.1 0 22.1-6.2 25.2-12.5 2.3-4.6 1.7-9.4-1.9-13.8L109 51.4c-4.5-6-13.3-9.6-23.1-9.6z" class="st0"/>
    <path d="M87 97.9c-11.5 0-20.6-9.6-20.6-21.5S75.5 54.9 87 54.9s20.6 9.6 20.6 21.5S98.4 97.9 87 97.9zm0-33.2c-6 0-11 5.2-11 11.7s5 11.7 11 11.7 11-5.2 11-11.7-5-11.7-11-11.7z" class="st1"/>
</svg>
