<svg xmlns="http://www.w3.org/2000/svg" viewBox="0 0 577.97 154.89"><defs><style>.cls-1{fill:#004098;}</style></defs><title>logo</title><g id="图层_2" data-name="图层 2"><g id="图层_1-2" data-name="图层 1"><polygon class="cls-1" points="334.09 92.69 351.86 110.46 351.86 21.61 334.09 39.38 334.09 92.69"/><polygon class="cls-1" points="334.09 26.8 351.86 9.03 351.86 0 334.09 0 334.09 26.8"/><path class="cls-1" d="M210.88,34.61l-4.74,4.74V66h0a26.66,26.66,0,0,1-53.31,0h0a26.62,26.62,0,0,1,38.11-24l13-13A44.43,44.43,0,0,0,135.06,66h0A44.42,44.42,0,0,0,210.9,97.46l13,13V21.61l-13,13Z"/><path class="cls-1" d="M323.43,66V21.61l-13,13h0l-4.76,4.75V66a26.72,26.72,0,1,1-15.18-24l13-13a44.43,44.43,0,1,0,2.17,72.6v8.89h0A26.65,26.65,0,0,1,279,137.11v17.78a44.43,44.43,0,0,0,44.43-44.43h0V66Z"/><path class="cls-1" d="M88.85,21.61a35.43,35.43,0,0,0-26.65,12A35.54,35.54,0,0,0,0,57.15v53.31H17.77l0-53.31a17.79,17.79,0,0,1,35.58-.36c0,.12,0,.24,0,.36v53.31H71.08V92.7h0V57.15c0-.12,0-.24,0-.36A17.74,17.74,0,0,1,93.49,40l13.43-13.43A35.29,35.29,0,0,0,88.85,21.61Z"/><polygon class="cls-1" points="106.62 39.41 106.62 56.61 106.62 72.19 106.62 92.69 106.65 92.69 124.4 110.46 124.4 21.64 114 32.03 106.62 39.41"/><path class="cls-1" d="M431.42,52.14V44.62h29.12V36.85H431.42V29.32h33.07V21.56H431.42V13.31H412v8.25H378.94v7.76H412v7.53H382.89v7.77H412v7.52h0l-7.77,7.76L373.18,91h19.41l3.85-3.85,13.82,6.77-13.13,6.82H373.18v9.66h5.33l0,0h26.26l18.95-9.92L444,110.39h26.26v-9.68h-20l-14-6.79,24.17-12.65h.14V71.56h-.12V67.44H416.12l7.53-7.53h46.6V52.15H431.42Zm9.7,23.07v2.66L422.76,87.4l-17.92-8.68,3.52-3.51Z"/><polygon class="cls-1" points="404.79 52.15 373.18 52.15 373.18 59.91 397.03 59.91 404.79 52.15"/><polygon class="cls-1" points="508.09 13.32 492.56 13.32 492.56 32.97 480.91 32.97 480.91 40.73 492.56 40.73 492.56 44.62 485.7 44.62 480.91 104.56 488.68 104.56 492.56 55.95 492.56 110.37 508.09 110.37 508.09 54.49 510.3 82.2 518.06 82.2 515.67 52.23 508.09 52.23 508.09 40.73 519.73 40.73 519.73 32.97 508.09 32.97 508.09 13.32"/><polygon class="cls-1" points="572.81 100.71 559 90.15 573.36 65.97 573.36 52.63 569.45 52.63 556.17 52.63 574.47 21.56 558.56 21.56 555.06 21.56 555.01 21.56 550.46 29.32 550.48 29.32 536.75 52.63 532.18 60.39 551.59 60.39 553.94 60.39 553.94 65.97 545.65 79.94 527.56 66.13 527.56 29.32 543.25 29.32 547.8 21.56 527.56 21.56 519.8 21.56 519.74 21.56 519.74 29.32 519.8 29.32 519.8 110.39 527.56 110.39 527.56 83.37 538.61 91.79 527.56 110.39 546.98 110.39 551.97 101.98 563.01 110.39 577.97 110.39 577.97 100.71 572.81 100.71"/></g></g></svg>