<svg xmlns="http://www.w3.org/2000/svg" id="图层_1" viewBox="0 0 93.3 123.3">
    <style>
        .st0{fill:#1d84ff}
    </style>
    <path d="M13.3 6.7c-3.7 0-6.7 3-6.7 6.7V110c0 3.7 3 6.7 6.7 6.7H80c3.7 0 6.7-3 6.7-6.7V13.3c0-3.7-3-6.7-6.7-6.7H13.3zm0-6.7H80c7.4 0 13.3 6 13.3 13.3V110c0 7.4-6 13.3-13.3 13.3H13.3C6 123.3 0 117.4 0 110V13.3C0 6 6 0 13.3 0z" class="st0"/>
    <path d="M31.7 13.3h30c3.3 0 5 1.7 5 5s-1.7 5-5 5h-30c-3.3 0-5-1.7-5-5s1.6-5 5-5zM46.7 95c5.6 0 8.3 2.8 8.3 8.3 0 5.6-2.8 8.3-8.3 8.3-5.6 0-8.3-2.8-8.3-8.3-.1-5.5 2.7-8.3 8.3-8.3z" class="st0"/>
</svg>
