<svg xmlns="http://www.w3.org/2000/svg" id="图层_1" viewBox="0 0 160.6 118.2">
    <style>
        .st0{fill:#fff}.st1{fill:#1d84ff}
    </style>
    <path d="M142.8 0h-125C8 0 0 8 0 17.8v82.6c0 9.8 8 17.8 17.8 17.8h125.1c9.8 0 17.8-8 17.8-17.8V17.8C160.6 8 152.6 0 142.8 0zm7.2 100.4c0 3.9-3.2 7.1-7.1 7.1H17.8c-3.9 0-7.1-3.2-7.1-7.1V17.8c0-3.9 3.2-7.1 7.1-7.1h125.1c3.9 0 7.1 3.2 7.1 7.1v82.6z" class="st0"/>
    <path d="M133.5 28.2L80.3 61.8 27.1 28.2c-2.5-1.6-5.8-.8-7.4 1.7-1.6 2.5-.8 5.8 1.7 7.4l56 35.3c.9.6 1.9.8 2.8.8h.2c1 0 2-.3 2.8-.8l56-35.3c2.5-1.6 3.2-4.9 1.7-7.4-1.6-2.5-4.9-3.2-7.4-1.7z" class="st1"/>
</svg>
